HIERARCHY
ROOT root
{
	OFFSET	0	13.1	24.9
	CHANNELS 6  Xposition Yposition Zposition Xrotation Yrotation Zrotation
	JOINT spine_1
	{
		OFFSET	0	9.99999	0
		CHANNELS 3  Xrotation Yrotation Zrotation
		JOINT spine_2
		{
			OFFSET	0	112	-10
			CHANNELS 3  Xrotation Yrotation Zrotation
			JOINT spine_3
			{
				OFFSET	0	206.5	19.3
				CHANNELS 3  Xrotation Yrotation Zrotation
				JOINT spine_4
				{
					OFFSET	0	110.4	14.6
					CHANNELS 3  Xrotation Yrotation Zrotation
					JOINT neck_1
					{
						OFFSET	0	71.8	-50.3
						CHANNELS 3  Xrotation Yrotation Zrotation
						JOINT neck_2
						{
							OFFSET	0	86.2	-25.8
							CHANNELS 3  Xrotation Yrotation Zrotation
							JOINT head_ee
							{
								OFFSET	0	179.8	-8.7
								CHANNELS 3  Xrotation Yrotation Zrotation
								End Site
								{
									OFFSET	1	0	0
								}
							}
						}
					}
					JOINT left_clavicle
					{
						OFFSET	-43.2	22.4	-70.8
						CHANNELS 3  Xrotation Yrotation Zrotation
						JOINT left_shoulder
						{
							OFFSET	-93.9	-5.79999	48.7
							CHANNELS 3  Xrotation Yrotation Zrotation
							JOINT left_elbow
							{
								OFFSET	-291.4	-30.8	15.2
								CHANNELS 3  Xrotation Yrotation Zrotation
								JOINT left_lowarm_twist
								{
									OFFSET	-110.7	-3.89999	13.6
									CHANNELS 3  Xrotation Yrotation Zrotation
									JOINT left_hand
									{
										OFFSET	-110.7	-3.89999	13.6
										CHANNELS 3  Xrotation Yrotation Zrotation
										JOINT left_ee
										{
											OFFSET	-80.8	-5.10001	12.1
											CHANNELS 3  Xrotation Yrotation Zrotation
											End Site
											{
												OFFSET	1	0	0
											}
										}
									}
								}
							}
						}
					}
					JOINT right_clavicle
					{
						OFFSET	43.2	22.4	-70.8
						CHANNELS 3  Xrotation Yrotation Zrotation
						JOINT right_shoulder
						{
							OFFSET	93.9	-5.79999	48.7
							CHANNELS 3  Xrotation Yrotation Zrotation
							JOINT right_elbow
							{
								OFFSET	291.4	-30.8	15.2
								CHANNELS 3  Xrotation Yrotation Zrotation
								JOINT right_lowarm_twist
								{
									OFFSET	110.7	-3.89999	13.6
									CHANNELS 3  Xrotation Yrotation Zrotation
									JOINT right_hand
									{
										OFFSET	110.7	-3.89999	13.6
										CHANNELS 3  Xrotation Yrotation Zrotation
										JOINT right_ee
										{
											OFFSET	80.8	-5.10001	12.1
											CHANNELS 3  Xrotation Yrotation Zrotation
											End Site
											{
												OFFSET	1	0	0
											}
										}
									}
								}
							}
						}
					}
				}
			}
		}
	}
	JOINT left_hip
	{
		OFFSET	-82.8	-127.5	0.300001
		CHANNELS 3  Xrotation Yrotation Zrotation
		JOINT left_knee
		{
			OFFSET	-28.2	-396.7	2.2
			CHANNELS 3  Xrotation Yrotation Zrotation
			JOINT left_ankle
			{
				OFFSET	-11.7	-411.3	35.4
				CHANNELS 3  Xrotation Yrotation Zrotation
				JOINT left_toes
				{
					OFFSET	0	-60	-88.6
					CHANNELS 3  Xrotation Yrotation Zrotation
					JOINT left_foot_ee
					{
						OFFSET	-22.5	-16.5	-42.2
						CHANNELS 3  Xrotation Yrotation Zrotation
						End Site
						{
							OFFSET	1	0	0
						}
					}
				}
			}
		}
	}
	JOINT right_hip
	{
		OFFSET	82.8	-127.5	0.300001
		CHANNELS 3  Xrotation Yrotation Zrotation
		JOINT right_knee
		{
			OFFSET	28.2	-396.7	2.2
			CHANNELS 3  Xrotation Yrotation Zrotation
			JOINT right_ankle
			{
				OFFSET	11.7	-411.3	35.4
				CHANNELS 3  Xrotation Yrotation Zrotation
				JOINT right_toes
				{
					OFFSET	0	-60	-88.6
					CHANNELS 3  Xrotation Yrotation Zrotation
					JOINT right_foot_ee
					{
						OFFSET	22.5	-16.5	-42.2
						CHANNELS 3  Xrotation Yrotation Zrotation
						End Site
						{
							OFFSET	1	0	0
						}
					}
				}
			}
		}
	}
}
MOTION
Frames: 8
Frame Time: 0.02
3177.02 653.055 -1669.29 -16.8132407211 82.8769431889 18.5160579625 -1.47885 0.359724 0.7374 -1.4786 0.312073 0.758794 -1.47409 0.124822 0.810909 -1.47492 0.251319 0.781022 -11.0378 15.0369 4.19085 -11.2985 25.7128 8.14734 -0.0 0.0 -0.0 2.9567 18.7125 6.64169 -31.8586 -25.6173 63.8873 0.646231 -17.7512 0.100916 -6.52343 -0.275005 0.786827 3.92527 29.2653 35.0228 -0.0 0.0 -0.0 12.6874 23.105 -25.2615 9.89644 28.3266 -53.7341 2.92029 55.3344 -1.5313 54.122 1.27945 6.54007 7.42181 0.944732 -59.7604 0.0 0.0 0.0 36.1426 9.82626 -9.25806 -10.1631 0.283199 1.53197 -5.47449 15.9126 0.817021 -36.2355 0.0 0.0 -0.0 0.0 -0.0 -5.78592 22.0627 -6.58639 -28.4672 -0.0997162 -4.3228 32.098 -0.801023 4.12443 0.598243 -0.0 -0.0 0.0 0.0 0.0 
3139.79283959 644.344 -1665.27767804 -12.3875406188 81.9261670017 14.8745419531 -1.55113 0.292298 0.740645 -1.55086 0.244578 0.757742 -1.54726 0.0584467 0.794086 -1.54809 0.18312 0.774891 -15.0944 15.2815 6.58087 -15.5634 25.3935 11.4395 -0.0 0.0 -0.0 2.83252 18.7853 6.4563 -30.7774 -25.7408 63.2002 0.869163 -23.2944 0.179163 -4.50693 -0.180435 0.54697 3.76981 28.9359 33.9212 -0.0 0.0 -0.0 12.8033 24.4948 -25.3904 8.28096 28.9986 -53.8923 2.64506 52.6403 -1.3086 54.122 1.27945 6.54007 7.55502 2.32854 -60.4833 0.0 0.0 0.0 37.0835 9.34697 -9.83023 -15.3892 0.322052 2.3326 -0.0410359 16.0862 0.00606006 -37.1238 0.0 0.0 -0.0 0.0 -0.0 -7.74809 22.5027 -8.03297 -29.144 -0.0758987 -4.42394 32.5572 -1.08286 4.16956 1.24999 -0.0 -0.0 0.0 0.0 0.0 
3139.78352715 644.344 -1665.36504272 -12.1874897346 81.7948018433 14.6724554347 -1.55113 0.292298 0.740645 -1.55086 0.244578 0.757742 -1.54726 0.0584467 0.794086 -1.54809 0.18312 0.774891 -15.0944 15.2815 6.58087 -15.5634 25.3935 11.4395 -0.0 0.0 -0.0 2.83252 18.7853 6.4563 -30.7774 -25.7408 63.2002 0.869163 -23.2944 0.179163 -4.50693 -0.180435 0.54697 3.76981 28.9359 33.9212 -0.0 0.0 -0.0 12.8033 24.4948 -25.3904 8.28096 28.9986 -53.8923 2.64506 52.6403 -1.3086 54.122 1.27945 6.54007 7.55502 2.32854 -60.4833 0.0 0.0 0.0 37.0835 9.34697 -9.83023 -15.3892 0.322052 2.3326 -0.0410359 16.0862 0.00606006 -37.1238 0.0 0.0 -0.0 0.0 -0.0 -7.74809 22.5027 -8.03297 -29.144 -0.0758987 -4.42394 32.5572 -1.08286 4.16956 1.24999 -0.0 -0.0 0.0 0.0 0.0 
3139.77575539 644.344 -1665.43948786 -12.0220653478 81.6828115727 14.5052965778 -1.55113 0.292298 0.740645 -1.55086 0.244578 0.757742 -1.54726 0.0584467 0.794086 -1.54809 0.18312 0.774891 -15.0944 15.2815 6.58087 -15.5634 25.3935 11.4395 -0.0 0.0 -0.0 2.83252 18.7853 6.4563 -30.7774 -25.7408 63.2002 0.869163 -23.2944 0.179163 -4.50693 -0.180435 0.54697 3.76981 28.9359 33.9212 -0.0 0.0 -0.0 12.8033 24.4948 -25.3904 8.28096 28.9986 -53.8923 2.64506 52.6403 -1.3086 54.122 1.27945 6.54007 7.55502 2.32854 -60.4833 0.0 0.0 0.0 37.0835 9.34697 -9.83023 -15.3892 0.322052 2.3326 -0.0410359 16.0862 0.00606006 -37.1238 0.0 0.0 -0.0 0.0 -0.0 -7.74809 22.5027 -8.03297 -29.144 -0.0758987 -4.42394 32.5572 -1.08286 4.16956 1.24999 -0.0 -0.0 0.0 0.0 0.0 
3062.1920504 633.181 -1641.07950244 0.279433448061 75.3369775514 2.50660810442 -1.40677 -0.1009 0.786487 -1.40644 -0.150741 0.778473 -1.40831 -0.328844 0.721533 -1.40897 -0.210768 0.764409 -20.3288 14.7616 7.28094 -21.1247 24.8434 13.224 -0.0 0.0 -0.0 3.15494 18.1475 6.92642 -27.8234 -26.8186 62.0151 1.13391 -29.3222 0.296661 -2.17176 -0.0815654 0.265313 3.04473 28.3734 29.0482 -0.0 0.0 -0.0 12.3154 22.6692 -24.4437 3.87453 31.3613 -56.963 2.09124 46.0057 -0.887884 48.6931 0.876846 5.97354 7.60294 2.30256 -61.1669 0.0 0.0 0.0 37.332 7.29293 -11.7269 -36.2409 -0.245094 5.46485 16.6933 13.9852 -2.328 -31.9381 0.0 0.0 -0.0 0.0 -0.0 -11.3101 26.8008 -5.6969 -34.1634 0.137787 -5.16429 32.7959 -10.1688 4.19145 2.78271 -0.0 -0.0 0.0 0.0 0.0 
3034.99855669 635.909 -1635.30858269 2.34891172551 73.4912469499 1.40952345189 -1.53206 -0.148572 0.674406 -1.53183 -0.191184 0.663586 -1.53395 -0.342574 0.599619 -1.53436 -0.243578 0.646195 -21.1381 14.4481 7.40217 -21.9421 24.2915 13.3957 -0.0 0.0 -0.0 3.54512 18.2373 7.52603 -26.4014 -26.7803 62.0103 1.17982 -30.3029 0.319486 -2.34461 -0.0884887 0.286295 2.83671 28.3475 27.7176 -0.0 0.0 -0.0 11.9151 21.8496 -23.596 0.828657 30.9752 -56.3987 1.93569 43.7929 -0.778065 46.7439 0.745692 5.76129 7.62423 2.12071 -61.6182 0.0 0.0 0.0 34.6208 7.28821 -11.8166 -36.8401 -0.278073 5.55083 23.037 13.8108 -3.12294 -31.1918 0.0 0.0 -0.0 0.0 -0.0 -11.5589 27.1616 -6.36165 -35.7893 0.220843 -5.39985 32.2924 -13.0076 4.16004 2.7479 -0.0 -0.0 0.0 0.0 0.0 
3002.70470805 638.996 -1631.6893527 4.02434196959 72.3981951135 0.270676944584 -1.47801 -0.114012 0.544119 -1.47786 -0.148404 0.535762 -1.47918 -0.270332 0.485784 -1.47946 -0.19022 0.52238 -20.4195 14.7723 7.34019 -21.2199 24.8477 13.3068 -0.0 0.0 -0.0 3.63219 18.3104 7.66056 -25.1474 -27.1125 61.9165 1.26221 -32.0149 0.362125 -2.86544 -0.109733 0.349392 2.69918 26.9625 26.5898 -0.0 0.0 -0.0 11.3737 19.9171 -22.5088 -2.14311 30.331 -56.7901 1.72399 40.4942 -0.635954 45.3815 0.658356 5.61037 7.60276 2.66559 -60.8625 0.0 0.0 0.0 31.2847 7.51793 -11.3927 -38.1037 -0.350555 5.73098 29.6106 12.6042 -3.87046 -30.1316 0.0 0.0 -0.0 0.0 -0.0 -12.2545 27.8226 -5.80198 -38.3249 0.363653 -5.76235 34.9481 -17.1133 4.48329 2.75064 -0.0 -0.0 0.0 0.0 0.0 
3002.35138329 638.996 -1633.36641417 3.90627644067 71.8488412198 0.394730350824 -1.47801 -0.114012 0.544119 -1.47786 -0.148404 0.535762 -1.47918 -0.270332 0.485784 -1.47946 -0.19022 0.52238 -20.4195 14.7723 7.34019 -21.2199 24.8477 13.3068 -0.0 0.0 -0.0 3.63219 18.3104 7.66056 -25.1474 -27.1125 61.9165 1.26221 -32.0149 0.362125 -2.86544 -0.109733 0.349392 2.69918 26.9625 26.5898 -0.0 0.0 -0.0 11.3737 19.9171 -22.5088 -2.14311 30.331 -56.7901 1.72399 40.4942 -0.635954 45.3815 0.658356 5.61037 7.60276 2.66559 -60.8625 0.0 0.0 0.0 31.2847 7.51793 -11.3927 -38.1037 -0.350555 5.73098 29.6106 12.6042 -3.87046 -30.1316 0.0 0.0 -0.0 0.0 -0.0 -12.2545 27.8226 -5.80198 -38.3249 0.363653 -5.76235 34.9481 -17.1133 4.48329 2.75064 -0.0 -0.0 0.0 0.0 0.0 
